/* XPM */
static char *_14f50dc8a814d4fd3642819c23d3b80euf1IdWrsh0I8hHp[] = {
/* columns rows colors chars-per-pixel */
"40 40 184 2 ",
"   c #3ee2fd",
".  c #030202",
"X  c #0A0606",
"o  c #0D0807",
"O  c #0D0B0A",
"+  c #140D0B",
"@  c #1A0C0B",
"#  c #120706",
"$  c #16100E",
"%  c #1C110F",
"&  c #151212",
"*  c #1D1312",
"=  c #1D1815",
"-  c #22130F",
";  c #231614",
":  c #281612",
">  c #251916",
",  c #2A1A16",
"<  c #251B1A",
"1  c #2A1D1B",
"2  c #301411",
"3  c #311E1B",
"4  c #391F1B",
"5  c #26201F",
"6  c #2D211D",
"7  c #33221D",
"8  c #3F201D",
"9  c #1A1C21",
"0  c #252122",
"q  c #2D2321",
"w  c #2E2B2B",
"e  c #2A2828",
"r  c #322522",
"t  c #392621",
"y  c #342924",
"u  c #3B2A25",
"i  c #3C2D29",
"p  c #352C28",
"a  c #3F322E",
"s  c #3B3635",
"d  c #36353B",
"f  c #44251A",
"g  c #412623",
"h  c #432B23",
"j  c #4B2B24",
"k  c #432E29",
"l  c #4D2F29",
"z  c #572E27",
"x  c #512E29",
"c  c #41322D",
"v  c #44322C",
"b  c #48362F",
"n  c #57362E",
"m  c #423C3B",
"M  c #473934",
"N  c #583D34",
"B  c #653C31",
"V  c #4A433F",
"C  c #5B433A",
"Z  c #6A4235",
"A  c #64453D",
"S  c #6E4238",
"D  c #69493B",
"F  c #7F4D3F",
"G  c #77493A",
"H  c #554847",
"J  c #664C44",
"K  c #794C44",
"L  c #7C5443",
"P  c #7B574F",
"I  c #7A5A4E",
"U  c #745247",
"Y  c #7A6053",
"T  c #585861",
"R  c #61626A",
"E  c #6B6664",
"W  c #A73D38",
"Q  c #884839",
"!  c #914D3D",
"~  c #8A523D",
"^  c #BE433A",
"/  c #86574A",
"(  c #825B4C",
")  c #8F5D4C",
"_  c #8D5544",
"`  c #985946",
"'  c #955D53",
"]  c #BB4A42",
"[  c #B84E4B",
"{  c #A65C49",
"}  c #A65C46",
"|  c #BE5A4B",
" . c #BD5A58",
".. c #8E614D",
"X. c #8F645A",
"o. c #8A675A",
"O. c #9A6750",
"+. c #916857",
"@. c #9E6A55",
"#. c #9D6D5D",
"$. c #946555",
"%. c #A7614F",
"&. c #A9674F",
"*. c #AC6B54",
"=. c #A36A5C",
"-. c #A66956",
";. c #B36E55",
":. c #BD6F55",
">. c #BF625E",
",. c #B86E58",
"<. c #B86958",
"1. c #AD745E",
"2. c #B5735C",
"3. c #B87B5E",
"4. c #9E6F61",
"5. c #8B776E",
"6. c #9D7A6A",
"7. c #A77261",
"8. c #BC7C62",
"9. c #B47F6C",
"0. c #B87962",
"q. c #C35048",
"w. c #C55752",
"e. c #C76959",
"r. c #CB685A",
"t. c #C37C5D",
"y. c #C1735A",
"u. c #C67E64",
"i. c #CA7C63",
"p. c #BE8063",
"a. c #B6826D",
"s. c #B9826B",
"d. c #A88674",
"f. c #B98471",
"g. c #B68B7C",
"h. c #C38265",
"j. c #CB8066",
"k. c #C5856A",
"l. c #CB876C",
"z. c #C28B6F",
"x. c #CB8A6D",
"c. c #D98A6F",
"v. c #C08470",
"b. c #CD8C72",
"n. c #D28F72",
"m. c #CF9174",
"M. c #CF937C",
"N. c #D49374",
"B. c #DB9374",
"V. c #D5947A",
"C. c #DD967B",
"Z. c #D6997C",
"A. c #DB9B7D",
"S. c #DB9C77",
"D. c #E39779",
"F. c #DDA27F",
"G. c #878793",
"H. c #9897A0",
"J. c #ADA9AE",
"K. c #C59884",
"L. c #DB9E82",
"P. c #E29F85",
"I. c #DDA384",
"U. c #DFA58C",
"Y. c #CAA490",
"T. c #D8A993",
"R. c #E1A284",
"E. c #E3A986",
"W. c #E4A589",
"Q. c #E3AA8C",
"!. c #E9AC8D",
"~. c #E8A182",
"^. c #EAB08F",
"/. c #E6AE91",
"(. c #EAAE92",
"). c #EBB294",
"_. c #EFB893",
"`. c #EDB69B",
"'. c #EFB99D",
"]. c #F0B397",
"[. c #F1B79B",
"{. c #F2B99D",
"}. c #EFBCA2",
"|. c #F3BBA1",
/* pixels */
"                                                                                ",
"                                                                                ",
"                                        X .   . O O O O O                       ",
"                          . O O & & = < 5 5 = 5 q 5 0 5 = O                     ",
"                    . O < q q q q y 7 y 5 5 5 5 > 5 > 5 5 < $ .                 ",
"                  . @ q q 3 q q 6 6 6 6 5 < 5 5 5 7 a i a 6 < * .               ",
"                . # > 3 k t r r 6 6 : 6 : , 6 7 > > 6 c a 7 y 6 % .             ",
"              . + 3 t M i a c t 6 < < > ; 5 7 p u 6 6 6 v v 7 7 7 % .           ",
"              o 7 u k b i t r q 1 1 1 r > , 1 r 7 7 6 6 6 i k 7 7 3 + .         ",
"            . : , k t t 3 1 < < r q r r k , 1 7 6 6 7 , 1 r t i 3 r < .         ",
"          . @ , 7 7 3 , < ; 3 / 4.4.$.X.9.0.K j 6 7 6 , < 1 y t u , 7 &         ",
"          X ; : 7 : , , % l b.P.W.(.[.|.|.[.W.l.8 7 z , > < 1 r u 1 , , .       ",
"        . @ ; , : : , - u k.L.W.].`.|.`.|.`.W.P.) > :.x > ; ; q 3 r , , X       ",
"        X : : , - 3 , * 1.V.U.(.`.`.`.|.`.`.(.P.V.3 3.F < ; ; < 1 1 1 1 *       ",
"        + : , ; , , % S n.L.!.(.`.`.`.`.'.`.(.P.P.A ( O.1 < ; < 1 1 6 1 < .     ",
"      . * 1 1 r 8 : : ;.V.W.(.}.`.`.`.`.'.'.(.W.P.a.M @.< < < < 5 , < q 6 =     ",
"      . * q q 1 : % j u.Q.).`.}.}.`.`.}.`.`.).).Q.D.C G 1 > < < < 1 < < 1 %     ",
"      . ; < q < ; % G @.P o.g.T.}.`.`.`.`.T.d.Y J ( 1.N u > < < < q 1 < ; < .   ",
"      . ; q q ; * $ _ 9.K.7.J n f.(.(.(.U l J 6.Y.K.+.9.A * < < < 1 1 ; < 1 X   ",
"      . ; q 1 ; & O %.,.P J P _ %.L.`.L.*.` X.o.4.l.M.b.s.1 > ; 0 1 1 < 3 q o   ",
"      . ; 1 < % + X i.B J H i X.` b.}.t.*.L E e m g 8.b.b.k * * * 1 1 5 q r &   ",
"      o ; 0 < & 4 @ D.L.2.#.f.M.k.n.`.k.Z.M.g.U =.8.V.m.x.N % ) / * < 1 u r *   ",
"      o * ; < * j 8 D.!.R.A.P.R.x.R.!.x.I.U.L.b.N.I.I.V.h.G f } ' % < 6 r q &   ",
"      o < * < ; < 8 D.!.(.!.!.!.u.).(.l.I.(.Q.Q.!.).R.N.u.Q Q <.K % ; 1 6 6 o   ",
"      . * ; < < + g c.R.(.[.{.W.j.|.`.b.Z.'.{.).`.(.L.M.,.} =.{ 3 % : 1 1 1 o   ",
"      o = < < ; % n i.D.!.[.[.A.N.).U.V.A.Q.|.}.(.W.L.b.*.*.9.=.+ > > , q 1 o   ",
"    . * < ; < < @ x y.n.P.!.).u.! 2.*._ ;.Q.).).W.C.n.8.&.*.-.Z @ , < > 1 * .   ",
"    . * * & < ; % 2 y.l.L.W.!.).Q.N.Z.)./.).U.U.L.M.l.0.&.n.v.k @ 1 1 > < +     ",
"      o X * ; ; = @ 3.l.S.F.Q._.F.E.W.^.'.^.Q.I.L.m.x.p.;.n.7., - 6 1 q s #     ",
"      . + 0 * ; = $ ( B.m.Z.Z.| ^ q.^ q.e.L.I.I.M.m.m.k.-.' 5.+ 5 6 7 M H & .   ",
"        . e ; < < % y n.N.F.b.W [ e.>. .W ,.I.I.Z.Z.Z.p.B H s ; 5 7 7 r w q & . ",
"        . * * ; > % y L B.Z.W.L.r.w.q.r.S.^.U.I.Z.I.V.n o O . ; 6 6 y p y y 6 . ",
"          o % > > ; v = h.Z.I.E.S.N.B.F.E.E.I.F.F.Z.F .   T d O e q r y w 6 O   ",
"          . = > < < i 6 h h.F.!._.[._.).^.Q.I.Z.N.$.$   0 G.G.9 < y w y < .     ",
"          . o * , < r r $ h p.E.^.).)._.^.I.m.3.Z +     m J.H.e o 1 r s w .     ",
"            . + < ; 1 * - . o Z z.F.I.R.f...h $         O R T O   . o = y &     ",
"              $ > s = + O       + ; 6 > o .                 .         . . . .   ",
"              + 0 & . .                                                         ",
"              X X                                                               ",
"                                                                                "
};
