/* XPM */
static char *_dcbb8a87d2340a9a5ae3aafd35d9520Huk7EmF44UALK3Yp[] = {
/* columns rows colors chars-per-pixel */
"40 40 188 2 ",
"   c #3ee2fd",
".  c #030202",
"X  c #0A0605",
"o  c #0D0807",
"O  c #070708",
"+  c #0C0A0A",
"@  c #100706",
"#  c #120807",
"$  c #130C0B",
"%  c #190E0C",
"&  c #16100F",
"*  c #1B110E",
"=  c #141011",
"-  c #1D1412",
";  c #18171A",
":  c #1B1C1F",
">  c #231614",
",  c #291714",
"<  c #241916",
"1  c #2A1A16",
"2  c #251B1A",
"3  c #2A1D1B",
"4  c #241718",
"5  c #311E1C",
"6  c #341C17",
"7  c #27211F",
"8  c #2D211D",
"9  c #33231E",
"0  c #3C251D",
"q  c #3F281F",
"w  c #272322",
"e  c #2D2421",
"r  c #2A282A",
"t  c #332522",
"y  c #392621",
"u  c #342924",
"i  c #3B2A25",
"p  c #342D2A",
"a  c #3B2E29",
"s  c #3F302C",
"d  c #363030",
"f  c #3D3736",
"g  c #451F1A",
"h  c #48261E",
"j  c #412620",
"k  c #462924",
"l  c #4B2924",
"z  c #412E29",
"x  c #532F27",
"c  c #43322C",
"v  c #4E3129",
"b  c #53322A",
"n  c #5B392D",
"m  c #59342A",
"M  c #4E3933",
"N  c #443B39",
"B  c #523730",
"V  c #553F35",
"C  c #5C3D32",
"Z  c #63382E",
"A  c #643D33",
"S  c #693D36",
"D  c #763F38",
"F  c #5F4038",
"G  c #53433B",
"H  c #63443C",
"J  c #684238",
"K  c #684B3D",
"L  c #734B3D",
"P  c #7B4633",
"I  c #4E4A4B",
"U  c #5C4D49",
"Y  c #4D4D54",
"T  c #694E43",
"R  c #794F40",
"E  c #7B5542",
"W  c #745549",
"Q  c #605757",
"!  c #6F5B53",
"~  c #785B50",
"^  c #61626B",
"/  c #7C6C69",
"(  c #72737C",
")  c #A63B37",
"_  c #944F3E",
"`  c #9D563E",
"'  c #BD463D",
"]  c #815445",
"[  c #8C5444",
"{  c #8A564A",
"}  c #945342",
"|  c #9E5849",
" . c #875D51",
".. c #9C5E53",
"X. c #BB4C45",
"o. c #AD5847",
"O. c #A45E49",
"+. c #BC5149",
"@. c #BC5956",
"#. c #8C6151",
"$. c #87645B",
"%. c #8C6659",
"&. c #9B6A53",
"*. c #9B6D5C",
"=. c #976756",
"-. c #A3654F",
";. c #AB664D",
":. c #AC694F",
">. c #A46954",
",. c #AF6C55",
"<. c #A66854",
"1. c #B46D54",
"2. c #BC665C",
"3. c #AA725C",
"4. c #B4745E",
"5. c #BB765D",
"6. c #BD7A5E",
"7. c #B67558",
"8. c #9E6E60",
"9. c #947163",
"0. c #AD7A66",
"q. c #A87466",
"w. c #BB7A63",
"e. c #B17D6B",
"r. c #A77C72",
"t. c #C45249",
"y. c #C55752",
"u. c #CA675A",
"i. c #C37C5E",
"p. c #C37B62",
"a. c #CA7662",
"s. c #B7806B",
"d. c #B9836A",
"f. c #A48372",
"g. c #BA8B77",
"h. c #C28267",
"j. c #C88364",
"k. c #C4846B",
"l. c #CC8B6D",
"z. c #C9896C",
"x. c #D7886D",
"c. c #D3856B",
"v. c #CE8D73",
"b. c #C28A78",
"n. c #D38F74",
"m. c #CE9174",
"M. c #C7917A",
"N. c #D49374",
"B. c #DA9475",
"V. c #D5957A",
"C. c #D9947A",
"Z. c #D4997C",
"A. c #DB9C7C",
"S. c #D99A75",
"D. c #E49C7F",
"F. c #DCA07E",
"G. c #747888",
"H. c #8A8A93",
"J. c #939099",
"K. c #BF9582",
"L. c #ADAAAE",
"P. c #C99482",
"I. c #DC9E82",
"U. c #E29F83",
"Y. c #CAA18C",
"T. c #DDA284",
"R. c #DEA48B",
"E. c #CFA893",
"W. c #E2A385",
"Q. c #E3A987",
"!. c #E3A78A",
"~. c #E4AA8B",
"^. c #E9AB8D",
"/. c #EBA081",
"(. c #EAB18F",
"). c #E5AC92",
"_. c #EAAE92",
"`. c #E7B093",
"'. c #EBB294",
"]. c #EDB69C",
"[. c #EEB99E",
"{. c #E9B598",
"}. c #F1B79D",
"|. c #F2B99C",
" X c #F0B792",
".X c #EEBAA1",
"XX c #F3BBA1",
"oX c #F6C0A3",
/* pixels */
"                                                                                ",
"                                                                                ",
"                      O + + + + O   X O .                                       ",
"                    O - w w 7 w 7 : 2 7 7 ; - $ $ + O                           ",
"                . + < 7 3 < : < 7 7 7 8 9 p 9 u e 7 e 3 - O                     ",
"              . & 2 9 a p c i 3 < < < < 8 8 8 8 8 t 8 8 8 - .                   ",
"            . % 8 u t a c 8 3 < 9 e 7 < 7 1 7 8 9 t 9 c 9 < $ .                 ",
"          . $ 5 0 9 a c 8 8 5 u a t 8 > , 1 < 8 u a c a M q 9 * .               ",
"          o 3 9 9 i z 9 e 5 e e t 3 4 4 t 3 3 3 8 t t i c z z y $ .             ",
"        . 4 9 9 i i 9 3 3 5 5 5 5 5 5 v t e t e 3 3 3 5 y i z 1 , .             ",
"        + 9 1 y i u 3 3 1 5 9 3 j T <.e.8. .8.8. .k 4 > , 6 5 y , % .           ",
"      . 4 1 3 i y 8 2 < 1 l l , a.U.}.XXXX}._.^.W.C.A - 4 1 , 9 , , # .         ",
"      O 2 3 t 3 3 4 4 - k ;.l J U.!.].XX.X.X}._.!.I.n.B * 1 , , 9 , % X         ",
"      + 1 3 5 3 2 4 4 4 J p.3 k.U.).].}.].].].]._.!.I.w.5 , 6 > , , > @         ",
"    . < 1 8 3 3 2 > 4 2 ] &.V A.U._.].].].].].{.{.).T.n.[ % 1 1 , < , % .       ",
"    $ 8 8 3 < 7 2 2 2 2 L K *.T.U.).}.]..X].].]..X{.!.C.i.0 * 0 y 3 3 4 .       ",
"    $ 5 4 4 3 7 2 2 2 4 L V V.W._.].].].].]..X.X[.]._.).z.Z % 4 e e 3 4 .       ",
"  . - 4 2 7 3 2 1 2 4 9 V &. .T ! r.P.{.].].]..X{.P.9.~ =.} % 4 4 3 3 3 .       ",
"  . 3 2 4 7 3 3 2 4 - B 0.*.g.E.f.W B A ~.{.).M.V C 9.P.g.O.+ - 4 3 e 1 .       ",
"  . 3 9 2 7 3 2 4 < - 0.v.v.l.q.$.$...<.V.`.~.1.[  .T W 1.a.$ = - 2 e 1 .       ",
"  + t e 3 3 3 4 = = 3 k.v.p.C f p I  .>.7.].T.` { U u / x x.- # = 3 7 < .       ",
"  $ t i e 1 4 C >., i k.v.Z.k.3.W r.P.Z.k.^.!.6.v.b.*.4.C.U.6 h $ 2 2 < +       ",
"  + 8 t 8 < * J o.Z m p.V.I.U.N.v.V.R.T.N.T.`.j.I.U.D.U.^.U.l Z = 3 4 - $ .     ",
"  . 7 e 8 < - l 2._ P 6.V.I._._.^.^._.Q.z.W.|.j.!.^.^.'.^.U.x 1 - 2 - < $ .     ",
"  X 3 8 7 < > 1 O...O.1.v.I._..X'.|.|.I.l._.oXN.U.XX}._.Q.D.m % > 3 - : X       ",
"  . 3 7 1 < 4 % ] e.7.-.k.Z.U._.XXXX_.A.Z.T.].B.n.}.|.^.D.c.D % 4 2 4 - + .     ",
"    % 3 2 2 6 % x <.>.;.w.v.C.W._._.`.5.} &.5._ 1.'._.W.n.a.S % 4 2 4 3 > X     ",
"    + 4 4 1 5 * 0 q.V.:.4.z.v.I.R.~.`.).^.!.j.^._.^.Q.U.x.i.g - 4 2 & - & X     ",
"    o d p 1 9 > * { T.1.w.z.m.Z.R.R.(.{.`.~.~.U. XQ.F.A.l.p.6 - > - - + o .     ",
"    $ f N 9 3 2 & ! q.&.d.m.m.m.I.T.T.a.t.' X.' +.N.F.N.N.#.2 4 4 - 7 & .       ",
". + w a u t t 8 , p Q b 7.Z.Z.Z.T.T.w.' +.2.@.@.) h.F.N.B.G * 4 4 - e O .       ",
". < u u u u 8 e < X + . y z.T.F.T.T.`.I.u.y.y.u.B.Q.A.B.&.a % 2 < > 4 .         ",
"  . 7 u t e u 8 & r ^ O   F m.F.F.T.R.Q.F.S.N.S.F.Q.F.j.0 s 2 , 4 * $           ",
"    . - e p u 7 ; G.J.r   $ L m.S.T.Q.`.{. X|.'.(.F.m.n 7 s 8 2 2 - O           ",
"    . r f p 9 $ : H.L.I     o n 3.l.T.~.{. X].(.Q.l.n % 9 u 7 3 > + .           ",
"    O p < # .   . Y ( =         o i ] d.F.W.F.m.L * . * * 8 & 2 & .             ",
"  . . . .           .                 X > 8 , &       + & & N < * .             ",
"                                                        . . $ r & .             ",
"                                                              . O               ",
"                                                                                "
};
