/* XPM */
static char *_4b219844d05436ca2353d4747591531exYqr0q8Gw5Xk3tl[] = {
/* columns rows colors chars-per-pixel */
"40 40 2 1 ",
"  c #3ee2fd",
". c black",
/* pixels */
"                                        ",
"                                        ",
"                                        ",
"                                        ",
"                                        ",
"   .....                        .....   ",
"   .   .                        .   .   ",
"  ..   ..                      ..   ..  ",
"  ..   .       .........        .   ..  ",
" .     ..      .        ..     ..    .. ",
".       ..  ..            .   ..       .",
".        ....              ....        .",
"..   ..   ..                .    ..   ..",
" .... ..  .                 ..  .. .... ",
"       ....                  ....       ",
"         .                    .         ",
"         .                    .         ",
"        ..                    .         ",
"        ..   ....     ....    .         ",
"        .   ..   .   ..   .   .         ",
"        ..  .    ..  .    ..  .         ",
"        ..  .     .  .     .  .         ",
"         .  .    ..  .    .   .         ",
"         .   .. ..    .. ..  .          ",
"         ..   ...      ...   ..         ",
"       .....      ...       . ...       ",
" .... ..   .               ..   .. ...  ",
"..   ..    ...            ...    ..    .",
".        ... ..          .. ...        .",
".       ..    .          .    ..       .",
" ..    ..     .  . .  .  .     ..    .. ",
"  ..   .      .  . .  .  .      .   ..  ",
"  ..   ..     ...........      ..   ..  ",
"   .   .       .........        .   .   ",
"   .....                        .....   ",
"                                        ",
"                                        ",
"                                        ",
"                                        ",
"                                        "
};
