/* XPM */
static char *f8c534478fd74031e6e1c1810c8b3e8ckE3iLiFX2NJ5MU2c[] = {
/* columns rows colors chars-per-pixel */
"40 40 167 2 ",
"   c #3ee2fd",
".  c #010101",
"X  c #0A0601",
"o  c #0C0B01",
"O  c #070708",
"+  c #0B0B0C",
"@  c #130302",
"#  c #150B02",
"$  c #131200",
"%  c #1E1B00",
"&  c #131314",
"*  c #171718",
"=  c #1B1B1C",
"-  c #2A0C0A",
";  c #221D02",
":  c #291107",
">  c #252202",
",  c #2E2A03",
"<  c #352D02",
"1  c #353100",
"2  c #3F3A00",
"3  c #20201F",
"4  c #2C2A1D",
"5  c #1F1F20",
"6  c #222223",
"7  c #2B2B2C",
"8  c #2F2F32",
"9  c #333334",
"0  c #3B3B3C",
"q  c #4A1615",
"w  c #71190B",
"e  c #423006",
"r  c #464000",
"t  c #4B4501",
"y  c #4D4802",
"u  c #524C01",
"i  c #544105",
"p  c #625B02",
"a  c #6C6301",
"s  c #776E00",
"d  c #7D7301",
"f  c #585523",
"g  c #434345",
"h  c #464649",
"j  c #4B4B4D",
"k  c #525253",
"l  c #575759",
"z  c #5B5B5F",
"x  c #626163",
"c  c #6F6F6F",
"v  c #7E7D7F",
"b  c #99100D",
"n  c #F71916",
"m  c #C72312",
"M  c #C33612",
"N  c #F02616",
"B  c #935416",
"V  c #AC5F0A",
"C  c #BC5B0F",
"Z  c #B95815",
"A  c #866107",
"S  c #837803",
"D  c #9B7308",
"F  c #9F6818",
"G  c #B4760A",
"H  c #B24325",
"J  c #A76523",
"K  c #BB7825",
"L  c #DB5513",
"P  c #E74314",
"I  c #E25612",
"U  c #CD7E0F",
"Y  c #C56810",
"T  c #C77111",
"R  c #C77A10",
"E  c #E17B0F",
"W  c #E87B0E",
"Q  c #C1752C",
"!  c #C87B39",
"~  c #9F5858",
"^  c #9E6464",
"/  c #C5744C",
"(  c #C67847",
")  c #C1795E",
"_  c #C3786E",
"`  c #8E8300",
"'  c #958901",
"]  c #968A01",
"[  c #9E9202",
"{  c #BF810C",
"}  c #A89B01",
"|  c #BCAD00",
" . c #B2A400",
".. c #CB890E",
"X. c #D58E0C",
"o. c #D9960D",
"O. c #CA8414",
"+. c #E3970D",
"@. c #DEAB0A",
"#. c #DAA60B",
"$. c #CDBD00",
"%. c #DFBA08",
"&. c #DCA611",
"*. c #DEA618",
"=. c #E1A20B",
"-. c #EAB708",
";. c #E5BB08",
":. c #D08421",
">. c #D5932B",
",. c #C6893F",
"<. c #D28E34",
"1. c #D0C001",
"2. c #DFC405",
"3. c #DBCA00",
"4. c #EBC809",
"5. c #EDD504",
"6. c #F2D505",
"7. c #F2DF01",
"8. c #F8DF03",
"9. c #F5E102",
"0. c #F9E502",
"q. c #FFEB00",
"w. c #FEF703",
"e. c #FFFA01",
"r. c #CC8242",
"t. c #CF924E",
"y. c #C48355",
"u. c #CF9355",
"i. c #CE965D",
"p. c #D09552",
"a. c #CD9766",
"s. c #C98678",
"d. c #CE9C7E",
"f. c #CD967F",
"g. c #838385",
"h. c #8D8C8E",
"j. c #959597",
"k. c #9C9C9E",
"l. c #BF8B89",
"z. c #A9A8AB",
"x. c #AEAEB0",
"c. c #BCBBBE",
"v. c #B4B4B6",
"b. c #C99883",
"n. c #C59394",
"m. c #CA9890",
"M. c #D1A38B",
"N. c #D0A7A7",
"B. c #D4B0AD",
"V. c #DBB7B9",
"C. c #D4BFC2",
"Z. c #C7C7C9",
"A. c #CFC0C3",
"S. c #D9C6C7",
"D. c #D5CED2",
"F. c #D8D5D8",
"G. c #E3D8DA",
"H. c #DAE1E5",
"J. c #DBEDF1",
"K. c #DEF3F8",
"L. c #DDF2F6",
"P. c #E1EEF2",
"I. c #EEF4F6",
"U. c #E3F5F9",
"Y. c #EEF9FC",
"T. c #F4FBFD",
"R. c #FAFEFF",
/* pixels */
"                                                                                ",
"                                                                                ",
"                                                                                ",
"                                                                                ",
"            . * & .                                                             ",
"            . h j.v 8 .           . + .                           +             ",
"                O 0 j.v &       + j 9 .                           k *           ",
"                    . + & . . . & . .                             6 g           ",
"                      . . . , . . O = 7 9 0 7 = + .               O 6           ",
"              . + 7 7 O . . 4 . . . & 9 x h.x.v.z.x .             . .   O 8 0 . ",
"          . 7 c g.h +     + j .         . . . * 6 +           . . . f X * k = . ",
"      . l c.Z.j .     X t u , a p $ .   . . . . o @ # > r ; + h & . > .         ",
"      0 c.g.6 .   X 2 | 7.9.5.q.0.3.S > $ ] G m M ..M 2.9.y 3 9 O . . .         ",
"      O + .     o } 4.@.%.9.q.q.q.q.q.7.` % 1.;.N I +.E q.9.} o .   & x .       ",
"              ; J f.V.S.V.m.<.9.4.u.u.>.7.| % 1.#.n o.L 6.1.1       . k.O       ",
"          . : s.I.R.R.R.R.T.P.( &.G.R.I.( 0. .1 7.N P E V o           7 &       ",
"          - l.T.R.R.R.R.R.R.R.F.:.B.T.U.D.&.q.a s W N A @             . .       ",
"        . ^ T.R.R.R.R.R.R.R.R.U.y.s.U.L.K.u.q.3.$ X.b .                         ",
"        q G.R.R.R.R.R.R.R.R.Y.K.b./ K.K.K.b.q.q.u < .                           ",
"      . ~ T.R.R.R.R.T.U.U.L.K.K.M.K K.K.F.( q.q.a .                             ",
"      o n.T.R.R.R.U.U.K.K.K.K.K.d.O.C._ H Z q.9.>                               ",
"      ; n.T.T.Y.U.L.K.K.K.K.K.K.u.@.Z ..4.X.q.1.o                               ",
"      X ) K.K.K.K.K.K.K.K.K.K.F.*...w.e.9.X.0.p .                               ",
"      . F A.K.K.K.K.K.K.K.K.H.r.8.R w.8.O.5.D o                                 ",
"        < K N.J.K.K.K.K.L.A.! 9.0.Y &.T ;.C X                                   ",
"        . $ i B ,.i.a.u.>.;.q.q.q.-.#.G w @         .                           ",
"        . + . . X t d ' ] ] [ [ S e @ . . .     . & .                           ",
"  O . . O . . . O . .     . . .           . + 8 8 +                             ",
". g z j h & . . .           O .         . g 0 = .                               ",
"  . + . .                   + . . . 5 9 = O                                     ",
"                            O + 9 g 7 +                                         ",
"                .     . . & l j = .       . . .         .             . .       ",
"              . 6 h 0 0 h g & .           . . .     . . .     . .   . . . .     ",
"                . . + . .                 . .       . . .     . .     . .       ",
"                                          . .       . . .     . .     . .       ",
"                                          . . .     . . .     . .     . .       ",
"                                                                                ",
"                                                                                ",
"                                                                                ",
"                                                                                "
};
