/* XPM */
static char *eca0e555389e437eb0d871c5557a089fnj4LVuPGQxxM9qQH[] = {
/* columns rows colors chars-per-pixel */
"40 40 186 2 ",
"   c #3ee2fd",
".  c #020101",
"X  c #0B0303",
"o  c #0E0A06",
"O  c #04050B",
"+  c #0A0709",
"@  c #0D0B0A",
"#  c #130203",
"$  c #100B07",
"%  c #140D0A",
"&  c #190304",
"*  c #17100D",
"=  c #1A110D",
"-  c #0B1011",
";  c #141212",
":  c #1D1513",
">  c #1B171B",
",  c #1F1919",
"<  c #220704",
"1  c #24180F",
"2  c #24130F",
"3  c #221612",
"4  c #261A13",
"5  c #2B1D15",
"6  c #241D1D",
"7  c #2B1E18",
"8  c #2C1711",
"9  c #321E16",
"0  c #24211E",
"q  c #33221A",
"w  c #39261C",
"e  c #3D2A1F",
"r  c #1C2526",
"t  c #2B2523",
"y  c #2F2928",
"u  c #202223",
"i  c #342C2D",
"p  c #3A2D2C",
"a  c #3E2C23",
"s  c #202F30",
"d  c #392F30",
"f  c #2F3333",
"g  c #3C3533",
"h  c #3B363F",
"j  c #412C1D",
"k  c #47301F",
"l  c #432D21",
"z  c #4C3425",
"x  c #493428",
"c  c #42332D",
"v  c #523727",
"b  c #50372A",
"n  c #533B2C",
"m  c #593C2B",
"M  c #523825",
"N  c #423534",
"B  c #463937",
"V  c #4C3A33",
"C  c #433939",
"Z  c #4A3A39",
"A  c #5C402E",
"S  c #4F403F",
"D  c #50403F",
"F  c #5B433B",
"G  c #62422E",
"H  c #6A462F",
"J  c #654632",
"K  c #694732",
"L  c #6C4933",
"P  c #6A4939",
"I  c #6F513E",
"U  c #7C5439",
"Y  c #755034",
"T  c #4F4040",
"R  c #4F4B44",
"E  c #5A4847",
"W  c #5C4748",
"Q  c #584745",
"!  c #674C43",
"~  c #674F46",
"^  c #6D5949",
"/  c #6E544D",
"(  c #795944",
")  c #695351",
"_  c #6F5856",
"`  c #745C5B",
"'  c #785D58",
"]  c #7D5B53",
"[  c #5A6D6D",
"{  c #7E6462",
"}  c #607372",
"|  c #717B73",
" . c #865B3E",
".. c #8A5D3F",
"X. c #835C43",
"o. c #895E41",
"O. c #8E6344",
"+. c #88634D",
"@. c #946444",
"#. c #9A6746",
"$. c #996847",
"%. c #916649",
"&. c #96684A",
"*. c #9D6B4B",
"=. c #8D6651",
"-. c #936952",
";. c #8B725C",
":. c #A26D4A",
">. c #A5714D",
",. c #A9734E",
"<. c #B1774D",
"1. c #A57454",
"2. c #AC7652",
"3. c #B17751",
"4. c #B47A53",
"5. c #B97D54",
"6. c #B87E58",
"7. c #B17B58",
"8. c #816664",
"9. c #836966",
"0. c #866A69",
"q. c #8B6E6D",
"w. c #8C716E",
"e. c #8F7270",
"r. c #947573",
"t. c #997A76",
"y. c #9D7C7A",
"u. c #B27F60",
"i. c #A27F7E",
"p. c #B7805C",
"a. c #BD8159",
"s. c #BC8357",
"d. c #A58569",
"f. c #B98463",
"g. c #A2817E",
"h. c #C5865A",
"j. c #C9875B",
"k. c #C6895D",
"l. c #CB8A5D",
"z. c #C18155",
"x. c #D18D5F",
"c. c #D5905F",
"v. c #CF8C61",
"b. c #CF9166",
"n. c #D69162",
"m. c #DC9463",
"M. c #D79A6F",
"N. c #DF9C6E",
"B. c #CD9374",
"V. c #E09664",
"C. c #E39966",
"Z. c #E99C66",
"A. c #E59C6C",
"S. c #EB9D69",
"D. c #EFA16B",
"F. c #F6A56D",
"G. c #F3A36B",
"H. c #F9A66E",
"J. c #FAA76E",
"K. c #FAA86E",
"L. c #FDA96E",
"P. c #FFA96E",
"I. c #FFA96F",
"U. c #FFAA6E",
"Y. c #FDA96D",
"T. c #FEA96E",
"R. c #EDA471",
"E. c #F1A573",
"W. c #F6A974",
"Q. c #F9A972",
"!. c #F3AA78",
"~. c #A27F80",
"^. c #728E8D",
"/. c #799795",
"(. c #769191",
"). c #A68382",
"_. c #AA8785",
"`. c #AB8986",
"'. c #AE8988",
"]. c #B28D8B",
"[. c #B18A82",
"{. c #B6918D",
"}. c #BB9492",
"|. c #B59390",
" X c #8AAFAF",
".X c #93AAA4",
/* pixels */
"                                                                                ",
"                                  # X o 3 5 q 9 8 <                             ",
"                            X X X . q :.Z.Y.Q.Y.K.v.b o &                       ",
"                        # . . . 7 @.Z.Y.Y.Y.Y.Y.Y.Y.G.@.= X                     ",
"                      X . . 3 2.Y.Y.Q.Y.Y.Y.Y.Q.Q.Y.Y.F.l.z . #                 ",
"                    X . . 7 m.Y.Y.Q.Y.Y.Q.Y.Y.Y.Y.Y.Y.Y.K.l.7 .                 ",
"                    . . 3 n.Y.Y.Y.Y.Q.Y.Y.Y.Y.Y.Y.Y.T.T.T.T.m.a X               ",
"                  X . . @.G.Y.Y.Y.Y.Y.Y.Y.Y.Q.Y.Q.Y.T.T.T.T.T.V.% X             ",
"                  . . = S.Y.Y.Q.Y.Q.U.Y.Y.Y.Q.Y.Y.Y.Y.Y.Y.Y.Y.Q....             ",
"                X . . #.Y.Y.Y.Y.Y.Y.Y.Y.Y.Y.Y.Y.Y.Y.Y.Y.Q.Y.Y.Y.m.=             ",
"                . . 5 G.Q.Y.Y.Y.U.Y.Q.Y.Q.Y.Y.Y.Y.Y.Y.Q.Y.Y.Y.Y.Y.m #           ",
"                . . * m.Y.Y.Y.T.Y.Q.Y.Y.Y.Y.Q.Y.Q.Y.Y.Y.Y.Q.Y.Y.Q.U .           ",
"                . . = Z.Y.Y.Q.Y.Z.C.G.Y.Q.Y.Y.U.Y.Y.Y.Y.Y.Q.Y.Y.U.5.+           ",
"        . 5 5 2 . . H Y.I.Z.3.o.#.3.m.H.Y.Y.Y.Y.Y.Y.Q.Y.Y.Y.Z.3.z.m.+           ",
"        j l.h.G.w . 4.J.*.b l 4 4 J l.G.Y.Y.Y.Y.Y.Q.Y.Y.m.m % G 3.U : O X o     ",
"        H F.5.>.x.= s.h.6.S.F.m.X.4 o v c.Y.Q.Y.Y.Y.V.,.* w v.I.Y.D.e w <.1     ",
"        k K.@.% S.7.4.Y.T.T.x.@.L n V J j G n.C.D.@.q : 7 I s.E.Y.Y.U G Y .     ",
"        = Z.U . @.B.5.Y.T.G.@.[ u t ^. X;.k.4.:.k.$.V g t [ (.k.Q.Y.@.m .       ",
"        . 5.4.J j.] 5.T.T.T.G.6.^ R | ;.>.4.6.S.Q.l.^ .X} /.d.U.Y.Y.@.: 4       ",
"          M ,.C.C.' <.T.T.T.T.T.F.n.$.X.x.3.j.m.T.X.M.%.O.%.k.K.Y.Y.U l z       ",
"          o 4.3.n.r.1.Q.I.I.T.Q.c.x.G.U.l.Y.C.C.K.( W.Q.K.Y.Y.Y.Y.Y.z z A       ",
"            j 4.1.).+.Q.W.I.Q.Q.U.Q.W.Q.U.L.E.R.W.&.R.W.W.W.Y.Q.Q.G.p K l       ",
"            .  .f.].~ E.W.I.W.Q.Q.W.W.W.Q.W.Q.W.Q.h.R.W.W.W.Q.W.W.1.) o.m       ",
"            X p.u.|.9.h.W.Q.W.W.Q.W.W.W.W.R.Y.Q.!.m.b.W.Q.Q.Q.W.N./ { 1.n       ",
"            1 G.1.}.'.F D.I.T.T.Q.Y.K.h.a.H.S.Y.Q.S.2.m.Q.T.G.S.! '.q.>.c       ",
"            o :.-.}.y.~.P S.5.l.T.Y.Z...Y.Y.m.Y.Y.Q.@.a.T.6.X.V ].r.r.>         ",
"                C )._.'.'.~ 6 z ,.H.S.H  .l.m.Y.Y.Y.:.:.I.m : 0.}.t.0.          ",
"                C e.t.y.].w.B Z ! G.H.m.>.l :.Y.Y.Y.K L H.&.B t.}.`.T           ",
"                i _.y._ y.}.).{ q.z % . . . . m o.e . . 9 =.`.}.}.9.W           ",
"                d g.y.w.{ }.}.y.t . . . . . . . . . . . . + 0.}.).q.t.          ",
"                > r.{ y.r.y.].E X . . 5 5 = X . . . $ * . . Z ].r.].q.          ",
"                O p r.q.`.).).g . > :.a.,.6.k.@.K @.@.X.; o T '.`._.h           ",
"                    S w.]._.r.y.'.{.[.p.F.m.:. .l.m.a.F _.].0.|.y.i             ",
"                      C ).].g.).}.].}.).( 5.h.j.j.2.V `.g.g._.9.f               ",
"                        u ` `.~.'.t.g.e.6 . . . . . r.r.g.e.) s                 ",
"                            C y.y.r.t.` . ; 6 > @ . 9.` 8.W                     ",
"                              ; N 9.~.).w.t.g.y.].t.w.w.N X                     ",
"                                  ; 0.].0.;.w.0.`.`.{ T -                       ",
"                                    r i y t 6 > ; + -                           ",
"                                                                                "
};
