/* XPM */
static char *f07cccf2d4fc4ac1ca851e03196dff19vMlGyiL3En2oLQLw[] = {
/* columns rows colors chars-per-pixel */
"40 40 206 2 ",
"   c #3ee2fd",
".  c #020101",
"X  c #0B0303",
"o  c #0E0A06",
"O  c #09080A",
"+  c #130404",
"@  c #190303",
"#  c #140D0A",
"$  c #170D09",
"%  c #1A110D",
"&  c #17100D",
"*  c #0B1011",
"=  c #141212",
"-  c #1B171B",
";  c #1D1513",
":  c #280907",
">  c #350907",
",  c #24160F",
"<  c #261A13",
"1  c #2B1D15",
"2  c #241D1D",
"3  c #291A15",
"4  c #321E16",
"5  c #33221A",
"6  c #3C261A",
"7  c #3E291D",
"8  c #1C2526",
"9  c #2B2523",
"0  c #252425",
"q  c #332B2C",
"w  c #3A2D2C",
"e  c #202F30",
"r  c #392F30",
"t  c #3C3537",
"y  c #2F3333",
"u  c #490D0A",
"i  c #5C0D0A",
"p  c #45100E",
"a  c #431D13",
"s  c #4A1C12",
"d  c #541512",
"f  c #581412",
"g  c #52130C",
"h  c #6C0B07",
"j  c #680D09",
"k  c #7E0E09",
"l  c #730C07",
"z  c #63110D",
"x  c #7D110C",
"c  c #77110D",
"v  c #631815",
"b  c #7C1511",
"n  c #412C1D",
"m  c #47301F",
"M  c #432D21",
"N  c #4B3324",
"B  c #42332D",
"V  c #50372A",
"C  c #5A3D2A",
"Z  c #533827",
"A  c #4C3A33",
"S  c #433939",
"D  c #463837",
"F  c #4F403F",
"G  c #5B433B",
"H  c #63432E",
"J  c #6A462F",
"K  c #6D492F",
"L  c #654632",
"P  c #6A4834",
"I  c #734D32",
"U  c #6F513E",
"Y  c #7C5439",
"T  c #7B5235",
"R  c #4F4040",
"E  c #4F4B44",
"W  c #5B4748",
"Q  c #674E45",
"!  c #6D574A",
"~  c #795944",
"^  c #6B5553",
"/  c #775C59",
"(  c #5A6D6D",
")  c #7E6462",
"_  c #607372",
"`  c #717B73",
"'  c #840F0A",
"]  c #96110B",
"[  c #881914",
"{  c #9A1F1A",
"}  c #A5140E",
"|  c #AD140D",
" . c #BE160E",
".. c #BB1B13",
"X. c #BF1F18",
"o. c #B61B14",
"O. c #A01D18",
"+. c #9F211C",
"@. c #BD231C",
"#. c #9F3531",
"$. c #B72E28",
"%. c #B83A35",
"&. c #BE332D",
"*. c #C4170F",
"=. c #CB170F",
"-. c #D4170F",
";. c #DB170E",
":. c #DA180F",
">. c #C31B13",
",. c #CB1B13",
"<. c #D31A12",
"1. c #DC1A11",
"2. c #C3211A",
"3. c #CB231C",
"4. c #D6241C",
"5. c #DD241D",
"6. c #C92720",
"7. c #CB2822",
"8. c #C62B25",
"9. c #D22E27",
"0. c #CB342E",
"q. c #C93A35",
"w. c #DB3F38",
"e. c #D0312A",
"r. c #865B3E",
"t. c #8A5D3F",
"y. c #CD423D",
"u. c #835C43",
"i. c #8A5E41",
"p. c #8B6349",
"a. c #946444",
"s. c #996847",
"d. c #936649",
"f. c #98694A",
"g. c #8B725C",
"h. c #906852",
"j. c #A26D4A",
"k. c #A5714D",
"l. c #A9734D",
"z. c #B1774D",
"x. c #B77A4F",
"c. c #A57454",
"v. c #AC7652",
"b. c #B17751",
"n. c #B47A53",
"m. c #B97D54",
"M. c #B87E58",
"N. c #B17B58",
"B. c #836966",
"V. c #866A69",
"C. c #8B6E6D",
"Z. c #816664",
"A. c #8C716E",
"S. c #8F7270",
"D. c #947573",
"F. c #997A76",
"G. c #9D7C7A",
"H. c #B27F60",
"J. c #C64742",
"K. c #BD8257",
"L. c #BD8159",
"P. c #B7805C",
"I. c #A2817E",
"U. c #AF8566",
"Y. c #C5865A",
"T. c #C9875B",
"R. c #C6895D",
"E. c #CB8A5C",
"W. c #C78556",
"Q. c #D28D5F",
"!. c #D5905F",
"~. c #DA925E",
"^. c #CF8C61",
"/. c #D69162",
"(. c #DC9463",
"). c #DB9B6F",
"_. c #CE926D",
"`. c #E39966",
"'. c #E99C66",
"]. c #EB9D69",
"[. c #E09663",
"{. c #EFA16A",
"}. c #F4A46C",
"|. c #F9A66E",
" X c #FDA96D",
".X c #FFA96F",
"XX c #FDA96E",
"oX c #EDA471",
"OX c #F1A573",
"+X c #F6A974",
"@X c #F9A972",
"#X c #F3AA78",
"$X c #A27F80",
"%X c #789493",
"&X c #728E8D",
"*X c #A68382",
"=X c #AA8785",
"-X c #AB8986",
";X c #AE8988",
":X c #B28D8B",
">X c #B18A82",
",X c #BB9492",
"<X c #B59390",
"1X c #B6918D",
"2X c #8AAFAF",
"3X c #93AAA4",
/* pixels */
"                                                                                ",
"                                  + X o , 1 5 4 , :                             ",
"                            X X X . 5 j.'.XX@XXXXX^.V o @                       ",
"                        + . . . 1 a.'.XX X X XXXXXXX}.a.& X                     ",
"                      X . . & s.{. X@XXX X XXX@X@XXXXX}.E.N . +                 ",
"                    . ' $.' h g 4 7 C T a.x.W.W.W.x.x.x.z.Y # + p +             ",
"                    X *.4.;.;.<.<.J.o.| [ z g u u j h h l ' } %.e.k .           ",
"                  X : -.,.3.8.,.<.<.5.1.0.y.2.2.3.1.;.3.3.2.,.<.1.z :           ",
"                  . f 1.8.q.7.>.2.,.9.<.>.@.$.>.7.7.>.q.$...X.2.1.f h .         ",
"                X . k ,.X.o.o. .o.>.,.X.>.,.;.;.<.<.<.,.,.<.,.,.-.k @ .         ",
"                . . #.6.<.-.-.-.<.,.*.>.@...@.,.$.&.@.,.*.*.*.o. .] + X         ",
"                . . f [ O...*.=.w.4.=.*.,.4.e.,.3.e.2.>.*.=.;.w.-.] z b .       ",
"                . . o Z a > i h c x | 0.1.3.q.<.<.3.>...>.<.>.} x > i | @       ",
"        . 1 1 , . . J XXXX!.i.L H H Z N 6 n a s n s a n n n n N I K.: 5.f       ",
"        n E.Y.}.6 . n.|.f.V M , < L E.}.XX X[.~.[.`.].|.(.C # H z.Y > 4.+..     ",
"        J }.m.k.Q.& K.Y.M.{.|.(.u.< o Z Q.XX|. X X X(.l.& 6 Q.@X XQ.p e.*.O     ",
"        m  Xa.# ].N.n.XXXXXXQ.a.P V A L n H /.`.{.d.5 ; 1 U K.OXXXz.z 7.3..     ",
"        & ].Y . d._.m.XXXX}.a.( 0 9 &X2Xg.R.n.j.R.s.A t 9 ( %XR.|.K +.q.o..     ",
"        . m.n.L T./ m.XXXXXX}.M.! E ` g.k.b.M.{.@XE.! 3X_ %XU.@X XI | :.] .     ",
"          Z l.`.'./ z.XXXXXX@XXX}./.s.u.Q.b.T.(.XXu.).d.p.p.Y.@XXXj.j -.l       ",
"          o n.b.!.D.c..X.X.X.X+X!.!.}.XXE.XX`.`. X~ +X@X X X X XXX X: %.>       ",
"            n n.c.*Xp.|.+X.X|.+XXX@X+X@XXXXXOXoX+Xd.oX+X+X+X X X|.}.q , %       ",
"            . i.U.;XQ #X+X.X+X@X@X+X+X+X@X+X@X+X@XY.oX@X+X+X+X+X+Xc.^ N 5       ",
"            + H.H.<XB.Y.+X@X+X+X@X+X+X+X+XoXXX@X#X(._.+X@X@X@X+X).^ ) c.C       ",
"            , }.c.,X;XG }..XXXXX+X X XY.K.|.].XX@X{.v.(.+X X}.'.Q ;XC.k.B       ",
"            o j.h.<XG.$XP ].m.E.XX X'.i.XXXX(.XX X@Xa.K.XXP.u.A :XD.D.-         ",
"                S =X=X;X;XQ 2 V l.|.].J r.E.(.XX X Xj.k.XXC ; V.,XG.V.          ",
"                S S.F.G.:XS.S S Q }.|.(.k.M j.XX X XL K |.f.D F.,X=XR           ",
"                q =XG.^ G.,X*X) C.N # . . . . C t.w . . 4 h.=X,X,XB.W           ",
"                r I.G.S.) ,X,XG.9 . . . . . . . . . . . . O V.,X*XS.F.          ",
"                - D.) G.D.G.:XW X . . 1 1 & X . . . o & . . D :XD.:XC.          ",
"                O w D.C.=X*X*Xt . - j.K.l.M.R.a.K a.a.u.= o R ;X;X=Xt           ",
"                    F A.:X=XD.G.;X1X-XP.}.(.j.r.E.(.K.G =X:XV.<XG.q             ",
"                      S *X:XI.*X,X:X,X*X~ m.T.T.T.v.A =XI.I.=XZ.y               ",
"                        8 / =X*X;XF.I.S.2 . . . . . D.D.I.S.^ e                 ",
"                            S G.G.D.F./ . = 2 - * . B./ Z.W                     ",
"                              = D Z.$X*XA.F.I.G.:XF.A.A.D X                     ",
"                                  = V.:XV.g.A.V.-X=X) R *                       ",
"                                    8 q q 9 2 - = O *                           ",
"                                                                                "
};
