/* XPM */
static char *_2c59688b4954e56a23494a5ad77b3ecNgrR1U7X4taoMkq7[] = {
/* columns rows colors chars-per-pixel */
"40 40 220 2 ",
"   c #3ee2fd",
".  c #020202",
"X  c #0A0504",
"o  c #060B06",
"O  c #0A0807",
"+  c #0D0C0A",
"@  c #1B0304",
"#  c #100E0C",
"$  c #120403",
"%  c #091608",
"&  c #14120F",
"*  c #1D160E",
"=  c #191511",
"-  c #1A1714",
";  c #220404",
":  c #2D0506",
">  c #390506",
",  c #24140D",
"<  c #2A130C",
"1  c #211D1A",
"2  c #251B15",
"3  c #391D11",
"4  c #163F0E",
"5  c #0D250A",
"6  c #25221D",
"7  c #2B2319",
"8  c #3A2618",
"9  c #2B2821",
"0  c #39322B",
"q  c #3B3732",
"w  c #3A2F23",
"e  c #440605",
"r  c #4B0405",
"t  c #460809",
"y  c #550505",
"u  c #401E11",
"i  c #690606",
"p  c #790607",
"a  c #600E11",
"s  c #472816",
"d  c #57341D",
"f  c #4A3B28",
"g  c #583925",
"h  c #443D34",
"j  c #473630",
"k  c #683E23",
"l  c #18520F",
"z  c #29661C",
"x  c #4D4337",
"c  c #574B3C",
"v  c #5B4838",
"b  c #5F513F",
"n  c #554028",
"m  c #6B462D",
"M  c #70492D",
"N  c #70532F",
"B  c #634F3F",
"V  c #6E543D",
"C  c #6E5437",
"Z  c #78563C",
"A  c #724A3D",
"S  c #564C41",
"D  c #5A5245",
"F  c #695746",
"G  c #7C5A41",
"H  c #79624C",
"J  c #6E6152",
"K  c #7D6A57",
"L  c #7A6E61",
"P  c #7C7264",
"I  c #8E0405",
"U  c #930A0B",
"Y  c #9D0607",
"T  c #A70808",
"R  c #B60908",
"E  c #C70807",
"W  c #D70A0A",
"Q  c #E60606",
"!  c #F20404",
"~  c #F90301",
"^  c #905D2E",
"/  c #8A5B3B",
"(  c #835638",
")  c #8E582A",
"_  c #80613F",
"`  c #97663D",
"'  c #A46B3B",
"]  c #A36537",
"[  c #BD7A3F",
"{  c #965842",
"}  c #8B664B",
"|  c #956D4C",
" . c #976944",
".. c #816E57",
"X. c #8A6C52",
"o. c #8A6956",
"O. c #946D54",
"+. c #97635B",
"@. c #877159",
"#. c #8D735C",
"$. c #8C7155",
"%. c #95785B",
"&. c #A97647",
"*. c #B77B46",
"=. c #A57B58",
"-. c #8D7662",
";. c #8C7965",
":. c #947A63",
">. c #927E69",
",. c #967A63",
"<. c #A37467",
"1. c #B17870",
"2. c #A66E63",
"3. c #C57F45",
"4. c #AE815C",
"5. c #B48352",
"6. c #B98655",
"7. c #97826D",
"8. c #9B866F",
"9. c #9C8673",
"0. c #9D8A75",
"q. c #998978",
"w. c #A58364",
"e. c #A58669",
"r. c #A98B6C",
"t. c #B7916B",
"y. c #A58C74",
"u. c #A78D76",
"i. c #AA9176",
"p. c #A3917D",
"a. c #AF937B",
"s. c #BC9C7B",
"d. c #B59675",
"f. c #B1886A",
"g. c #C7864A",
"h. c #CA8D53",
"j. c #C68953",
"k. c #CC9159",
"l. c #DB9553",
"z. c #DC9B5A",
"x. c #D79558",
"c. c #D28A4B",
"v. c #E39E5A",
"b. c #E29C56",
"n. c #EAA35D",
"m. c #E3A15D",
"M. c #C69769",
"N. c #DB9E64",
"B. c #D29A65",
"V. c #CB9B73",
"C. c #D4977A",
"Z. c #DEA165",
"A. c #DBA36C",
"S. c #C1A079",
"D. c #D2A171",
"F. c #DAA673",
"G. c #DEAC7B",
"H. c #D8A979",
"J. c #DFB07F",
"K. c #E3A264",
"L. c #EBA764",
"P. c #EDA964",
"I. c #E3A76B",
"U. c #EBAB6B",
"Y. c #E6A96C",
"T. c #F2AF6C",
"R. c #F2AC66",
"E. c #F4B06C",
"W. c #E5AA72",
"Q. c #E4AD7A",
"!. c #E8AE76",
"~. c #F1AF70",
"^. c #EBB47E",
"/. c #E3B17C",
"(. c #F4B272",
"). c #F8BA7D",
"_. c #F7B779",
"`. c #AD9C8D",
"'. c #A89686",
"]. c #B09F8A",
"[. c #ADA08E",
"{. c #BCAA97",
"}. c #BDAEA0",
"|. c #C6A785",
" X c #D4AB85",
".X c #C9B08F",
"XX c #D5B38C",
"oX c #DBB389",
"OX c #DDBC97",
"+X c #C9AE94",
"@X c #E9B684",
"#X c #EEB983",
"$X c #EEBC8B",
"%X c #E3B587",
"&X c #F3B682",
"*X c #F5BC84",
"=X c #F8BD84",
"-X c #F8BF88",
";X c #F6BF8A",
":X c #EDBD91",
">X c #E2BC98",
",X c #E4AE83",
"<X c #DEC29F",
"1X c #FBC48D",
"2X c #F7C188",
"3X c #ECC295",
"4X c #F3C392",
"5X c #FBC692",
"6X c #FCC995",
"7X c #F5CA9B",
"8X c #FDCC9C",
"9X c #F4C698",
"0X c #FACEA1",
"qX c #FBD1A6",
"wX c #FBD5AB",
"eX c #F6D3A9",
"rX c #EED7B8",
"tX c #FDDAB5",
"yX c #FADCB9",
"uX c #FEE0BF",
/* pixels */
"                                                                                ",
"                                                                                ",
"                                                                                ",
"                      . + - 6 1 = o                                             ",
"                  1 F J ..@.#.$.;.K D q +                                       ",
"                x |.e.a.i.a.$.7.,.8.$...J #                                     ",
"            & %.8X8X9X3XoX3X8X0X8X8X8XXX,...-                                   ",
"          . p.eXwX8X8X8X8X8X8X8X8X8X8X7Xy...q.0                                 ",
"          P uXwXqX8X8X8X8X5X5XwXuXtX6X8XOX'.'.`.q                               ",
"        7 rXqX8X8X8X8X8X5X1X1X8XtXwX6X6X:Xa.{.q.;.O                             ",
"        0.tX8X8X8X8X8X6X1X1X1X1X-X5X1X5X3Xa.q.>.;.-                             ",
"      . <XqX8X8X8X8X8X6X5X1X1X-X-X1X1X;X9Xe.>.-.-.S                             ",
"      . eX8X8X8X8X8X8X8X5X5X1X;X-X1X-X=X4Xd.-.9.>.S                             ",
"      6 wX8XqX8X8X8X6X1X-X=X*X=X=X).(.E.$Xi.#.7.7.S                             ",
"      9 qX8X8X8X8X8X8X1X-X-X*X@X&X~.R.!.].r.-.9.q.h                             ",
"      c 7X8X8X8X8X8X8X6X-X=X$X XoXU.L.D.y.y.9.9.'.h                             ",
"      x F >X8X6X8X6X6X6X5X2X7X.XH.L.n.^.w.;.[.'.p.q                             ",
"      2 + 2 o.^.).&X$Xi.e.r.y.3XB.L.P.U.oXH {.[.p.9                             ",
"      v M d , Z K.B.g - o X X < 4.U.R.U./.$.{.[.L + #           o > ;           ",
"      H u 3 s < M. ., + , 3 g M 8 Z.E.E.Y.4.[.8.9.+Xs..       . ; W y e ; .     ",
"      @.( V .XC Q.=.s d 8 j ,.g M K.T.T.L.=.i.D. X{..X.     a T Y p U ! Q U .   ",
"      #.!.' m B $X&.) )  .%.<XoXB.Y.E.E.Z.O.w.D.| M.,.    . I t p i Y r T Q X   ",
"      c $XA.A.r.0XF.x.h.' &.*.j.G.F.)._.K.k.#X4.6.@Xw     $ t E ~ Y p r e T @   ",
"      9 yX3X6X{.0X^.x.Z.^.F.A.$X7X3X).(.m.Z.1XO.&. Xo     @ y ! ~ ! Y > T i R > ",
"      o rXwX7XS.0X!.c. .M.5X8XtXeX6X=X(.z.L.4X4.Q.B       . r ! ~ ~ Q I > i W : ",
"      . +XqXXXXXyX$XK.k.g M.*X4X%X1X_.P.l.Y.7X7XV.O       . @ E E Q ! Q i R e   ",
"        :.9X|  X0X^.=.m ( ( ` ( / A.(.x.l.F.= r.&     . . .   : Y p E I y E @   ",
"        S G.=.w.O.Z u { Z.F.f.A  .z.P.c.m.V . o o .     o % . . ; : r I I @     ",
"        7 t.j.6X:X*.*.(.2X3X$.V.%._ n 8 7 + .           % l z 4 o o . $ .       ",
"  % .   # O.5.$X8XW.N.,XV.@.f f N  .' &.M.#             . 5 l l l %             ",
"  . . . . + * g O.=.o.<.1.C.K.m.n.P.' k.b                   . . . .             ",
"          c A.B.V.2.2.+.{ j.m.b.n.z.' G.O                                       ",
"          q 1X).5.` / ] 3.l.b.v.b.] N.H                                         ",
"          = 3Xs.0.o.Z &.b.v.b.b.[ h.t.+                                         ",
"            K 0XtX7X4X,XW.c.3.3.h.C O                                           ",
"            x /.N.x.j.g.j.*.K.6.7                                               ",
"            . 1 f V Z } } } w .                                                 ",
"                    O 1 #                                                       ",
"                                                                                ",
"                                                                                "
};
