/* XPM */
static char *_3909478e9af4c42e6a6e12b946d667bowrAH55KomoI1fiy[] = {
/* columns rows colors chars-per-pixel */
"40 40 212 2 ",
"   c #3EE2FD",
".  c #060B06",
"X  c #191511",
"o  c #211D1A",
"O  c #25221D",
"+  c #1A1714",
"@  c #0D0C0A",
"#  c #020202",
"$  c #3B3732",
"%  c #5A5245",
"&  c #7D6A57",
"*  c #8C7965",
"=  c #8C7155",
"-  c #8D735C",
";  c #877159",
":  c #816E57",
">  c #6E6152",
",  c #695746",
"<  c #100E0C",
"1  c #9B866F",
"2  c #967A63",
"3  c #97826D",
"4  c #AF937B",
"5  c #AA9176",
"6  c #A58669",
"7  c #C6A785",
"8  c #4D4337",
"9  c #D5B38C",
"0  c #FDCC9C",
"q  c #FACEA1",
"w  c #ECC295",
"e  c #DBB389",
"r  c #F4C698",
"t  c #95785B",
"y  c #14120F",
"u  c #39322B",
"i  c #998978",
"p  c #A58C74",
"a  c #F5CA9B",
"s  c #FBD5AB",
"d  c #F6D3A9",
"f  c #A3917D",
"g  c #AD9C8D",
"h  c #A89686",
"j  c #DDBC97",
"k  c #FCC995",
"l  c #FDDAB5",
"z  c #FEE0BF",
"x  c #FBC692",
"c  c #FBD1A6",
"v  c #7C7264",
"b  c #0A0807",
"n  c #BCAA97",
"m  c #EDBD91",
"M  c #FBC48D",
"N  c #EED7B8",
"B  c #2B2319",
"V  c #927E69",
"C  c #F8BF88",
"Z  c #9D8A75",
"A  c #564C41",
"S  c #8D7662",
"D  c #F6BF8A",
"F  c #DEC29F",
"G  c #9C8673",
"H  c #B59675",
"J  c #F3C392",
"K  c #F8BD84",
"L  c #EEBC8B",
"P  c #F4B06C",
"I  c #F4B272",
"U  c #F8BA7D",
"Y  c #F5BC84",
"T  c #443D34",
"R  c #A98B6C",
"E  c #B09F8A",
"W  c #E8AE76",
"Q  c #F2AC66",
"!  c #F1AF70",
"~  c #F3B682",
"^  c #E9B684",
"/  c #2B2821",
"(  c #D2A171",
")  c #EBA764",
"_  c #EBAB6B",
"`  c #D4AB85",
"'  c #574B3C",
"]  c #ADA08E",
"[  c #A58364",
"{  c #EBB47E",
"}  c #EAA35D",
"|  c #D8A979",
" . c #C9B08F",
".. c #F7C188",
"X. c #E2BC98",
"o. c #79624C",
"O. c #EDA964",
"+. c #D29A65",
"@. c #8A6956",
"#. c #251B15",
"$. c #220404",
"%. c #390506",
"&. c #7A6E61",
"*. c #E3B17C",
"=. c #AE815C",
"-. c #2A130C",
";. c #0A0504",
":. c #583925",
">. c #E3A264",
",. c #78563C",
"<. c #24140D",
"1. c #57341D",
"2. c #70492D",
"3. c #5B4838",
"4. c #440605",
"5. c #550505",
"6. c #D70A0A",
"7. c #BC9C7B",
"8. c #C9AE94",
"9. c #E6A96C",
"0. c #DEA165",
"q. c #3A2618",
"w. c #391D11",
"e. c #976944",
"r. c #C69769",
"t. c #472816",
"y. c #401E11",
"u. c #930A0B",
"i. c #E60606",
"p. c #F20404",
"a. c #790607",
"s. c #9D0607",
"d. c #A70808",
"f. c #600E11",
"g. c #A57B58",
"h. c #F2AF6C",
"j. c #473630",
"k. c #E4AD7A",
"l. c #6E5437",
"z. c #6E543D",
"x. c #835638",
"c. c #4B0405",
"v. c #690606",
"b. c #460809",
"n. c #8E0405",
"m. c #956D4C",
"M. c #946D54",
"N. c #8E582A",
"B. c #A97647",
"V. c #634F3F",
"C. c #6B462D",
"Z. c #A46B3B",
"A. c #1B0304",
"S. c #F90301",
"D. c #C70807",
"F. c #120403",
"G. c #3A2F23",
"H. c #B98655",
"J. c #EEB983",
"K. c #CC9159",
"L. c #F7B779",
"P. c #DAA673",
"I. c #DEAC7B",
"U. c #C68953",
"Y. c #B77B46",
"T. c #CA8D53",
"R. c #D79558",
"E. c #DBA36C",
"W. c #B60908",
"Q. c #E3A15D",
"!. c #FADCB9",
"~. c #2D0506",
"^. c #DC9B5A",
"/. c #D28A4B",
"(. c #C1A079",
"). c #CB9B73",
"_. c #DB9553",
"`. c #E3B587",
"'. c #8A5B3B",
"]. c #97663D",
"[. c #947A63",
"{. c #091608",
"}. c #724A3D",
"|. c #B1886A",
" X c #965842",
".X c #163F0E",
"XX c #29661C",
"oX c #18520F",
"OX c #554028",
"+X c #80613F",
"@X c #B7916B",
"#X c #0D250A",
"$X c #70532F",
"%X c #4A3B28",
"&X c #E4AE83",
"*X c #DB9E64",
"=X c #E5AA72",
"-X c #B48352",
";X c #5F513F",
":X c #D4977A",
">X c #B17870",
",X c #A37467",
"<X c #1D160E",
"1X c #E29C56",
"2X c #97635B",
"3X c #A66E63",
"4X c #A36537",
"5X c #E39E5A",
"6X c #C57F45",
"7X c #BD7A3F",
"8X c #C7864A",
"9X c #8B664B",
/* pixels */
"                                                                                ",
"                                                                                ",
"                                                                                ",
"                                            . X o O + @ #                       ",
"                                      @ $ % & * = - ; : > , o                   ",
"                                    < > : = 1 2 3 = 4 5 4 6 7 8                 ",
"                                  + : 2 9 0 0 0 q 0 w e w r 0 0 t y             ",
"                                u i : p a 0 0 0 0 0 0 0 0 0 0 s d f #           ",
"                              $ g h h j 0 k l z s x x 0 0 0 0 c s z v           ",
"                            b * i n 4 m k k s l 0 M M x 0 0 0 0 0 c N B         ",
"                            + * V i 4 w x M x C M M M M k 0 0 0 0 0 l Z         ",
"                            A S S V 6 r D M M C C M M x k 0 0 0 0 0 c F #       ",
"                            A V G S H J K C M C D M x x 0 0 0 0 0 0 0 d #       ",
"                            A 3 3 - 5 L P I U K K Y K C M k 0 0 0 c 0 s O       ",
"                            T i G S R E W Q ! ~ ^ Y C C M 0 0 0 0 0 0 c /       ",
"                            T h G G p p ( ) _ e ` L K C k 0 0 0 0 0 0 a '       ",
"                            $ f h ] * [ { } ) |  .a ..x k k k 0 k 0 X., 8       ",
"                            / f ] n o.e _ O.) +.w p R 6 5 L ~ U { @.#.@ #.      ",
"          $.%..           < @ &.] n = *._ Q _ =.-.;.;.. + :.+.>.,.<.1.2.3.      ",
"    # $.4.5.6.$.#       # 7.8.G 1 ] =.9.P P 0.q.2.:.w.<.@ <.e.r.-.t.w.y.o.      ",
"  # u.i.p.u.a.s.d.f.    #  .n ` ( 5 g.) h.h.>.2.:.2 j.q.1.t.g.k.l. .z.x.;       ",
"  ;.i.d.c.s.v.a.b.n.#     2 r.m.( [ M.0.P P 9.+.e F t e.N.N.B.L V.C.Z.W -       ",
"  A.d.4.c.a.s.S.D.b.F.    G.^ H.=.J.K.>.L.U P.I.U.Y.B.Z.T.R.P.q R E.E.L '       ",
"%.W.v.d.%.s.p.S.p.5.A.    . ` B.M.M 0.Q.I U w a L E.P.{ 0.R.{ q n k w !./       ",
"~.6.v.%.n.i.S.S.p.c.#       V.k.=.J ) ^.I K k d l 0 x r.e./.W q (.a s N .       ",
"  4.W.v.i.p.i.D.D.A.#       b ).a a 9._.O.L.M `.J Y r.:.K.>.L !.9 9 c 8.#       ",
"  A.D.5.n.D.a.s.~.  # # #     y R X P._.R.I E.'.x.].x.x.C.g.{ q ` m.r [.        ",
"    A.n.n.c.~.$.# # {..     # . . # z.Q./.O.^.e.}.|.P.0. Xy.,.M.[ g.I.A         ",
"      # F.# . . .XXXoX{.          # @ B q.OX+Xt ).= w ..I Y.Y.m k U.@XB         ",
"            {.oXoXoX#X#             < r.B.Z.e.$X%X%X; ).&X*X=X0 L -XM.<   # {.  ",
"            # # # #                   ;XK.Z.O.} Q.>.:X>X,X@.g.M.:.<X@ # # # #   ",
"                                      b I.Z.^.} 1XQ.U. X2X3X3X).+.E.'           ",
"                                        o.*X4X1X5X1X_.6X4X'.].-XU M $           ",
"                                        @ @XT.7X1X1X5X1XB.,.@.Z 7.w X           ",
"                                          b l.T.6X6X/.=X&XJ a l q &             ",
"                                              B H.>.Y.U.8XU.R.*X*.8             ",
"                                                # G.9X9X9X,.z.%Xo #             ",
"                                                      < o b                     ",
"                                                                                ",
"                                                                                "
};
