/* XPM */
static char *fa0514e6defc452bb17057eb140b1adfWuXbxmjWwWUn4yRz[] = {
/* columns rows colors chars-per-pixel */
"40 40 2 1 ",
"  c #3ee2fd",
". c red",
/* pixels */
"                   ..                   ",
"                   ..                   ",
"                   ..                   ",
"                   ..                   ",
"                   ..                   ",
"                   ..                   ",
"                   ..                   ",
"                   ..                   ",
"                   ..                   ",
"                   ..                   ",
"                   ..                   ",
"                   ..                   ",
"                   ..                   ",
"                   ..                   ",
"                   ..                   ",
"                   ..                   ",
"                   ..                   ",
"                   ..                   ",
"                   ..                   ",
"                   ..                   ",
"                   ..                   ",
"                   ..                   ",
"                   ..                   ",
"                   ..                   ",
"                   ..                   ",
"                   ..                   ",
"                   ..                   ",
"                   ..                   ",
"                   ..                   ",
"                   ..                   ",
"                   ..                   ",
"                   ..                   ",
"                   ..                   ",
"                   ..                   ",
"                   ..                   ",
"                   ..                   ",
"                   ..                   ",
"                   ..                   ",
"                   ..                   ",
"                   ..                   ",
};
